<svg xmlns="http://www.w3.org/2000/svg" width="800" height="800" fill="none" viewBox="0 0 24 24"><path stroke="currentColor" stroke-linecap="round" stroke-linejoin="round" stroke-width="2" d="M11 18c0 .932 0 1.398.152 1.765a2 2 0 0 0 1.083 1.083C12.602 21 13.068 21 14 21h4c.932 0 1.398 0 1.765-.152a2 2 0 0 0 1.083-1.083C21 19.398 21 18.932 21 18s0-1.398-.152-1.765a2 2 0 0 0-1.083-1.083C19.398 15 18.932 15 18 15h-4c-.932 0-1.398 0-1.765.152a2 2 0 0 0-1.083 1.083C11 16.602 11 17.068 11 18zm0 0H9.2c-1.12 0-1.68 0-2.108-.218a2 2 0 0 1-.874-.874C6 16.48 6 15.92 6 14.8V9m0 0h12c.932 0 1.398 0 1.765-.152a2 2 0 0 0 1.083-1.083C21 7.398 21 6.932 21 6s0-1.398-.152-1.765a2 2 0 0 0-1.083-1.083C19.398 3 18.932 3 18 3H6c-.932 0-1.398 0-1.765.152a2 2 0 0 0-1.083 1.083C3 4.602 3 5.068 3 6s0 1.398.152 1.765a2 2 0 0 0 1.083 1.083C4.602 9 5.068 9 6 9z"/></svg>