<svg xmlns="http://www.w3.org/2000/svg" width="800" height="800" fill="none" viewBox="0 0 24 24"><path stroke="currentColor" stroke-linecap="round" stroke-linejoin="round" stroke-width="2" d="M9 21a2 2 0 0 1-2-2v-3.675c0-.489 0-.733-.055-.963-.05-.204-.13-.4-.24-.579-.123-.201-.296-.374-.642-.72L5 12l1.063-1.063c.346-.346.519-.519.642-.72a2 2 0 0 0 .24-.579C7 9.408 7 9.164 7 8.675V5a2 2 0 0 1 2-2m6 18a2 2 0 0 0 2-2v-3.675c0-.489 0-.733.055-.963.05-.204.13-.4.24-.579.123-.201.296-.374.642-.72L19 12l-1.063-1.063c-.346-.346-.519-.519-.642-.72a2.002 2.002 0 0 1-.24-.579C17 9.408 17 9.164 17 8.675V5a2 2 0 0 0-2-2"/></svg>